<?xml version="1.0" standalone="no"?><!DOCTYPE svg PUBLIC "-//W3C//DTD SVG 1.1//EN" "http://www.w3.org/Graphics/SVG/1.1/DTD/svg11.dtd"><svg t="1583130069711" class="icon" viewBox="0 0 1024 1024" version="1.1" xmlns="http://www.w3.org/2000/svg" p-id="903" width="32" height="32" xmlns:xlink="http://www.w3.org/1999/xlink"><defs><style type="text/css"></style></defs><path d="M512 512m-400.695652 0a400.695652 400.695652 0 1 0 801.391304 0 400.695652 400.695652 0 1 0-801.391304 0Z" fill="#0B77E3" fill-opacity=".2" p-id="904"></path><path d="M449.625043 635.225043c0-38.433391 4.763826-69.042087 14.280348-91.826086 9.516522-22.784 26.946783-45.234087 52.290783-67.339131 25.33287-22.093913 42.206609-40.080696 50.610087-53.949217 8.403478-13.879652 12.610783-28.505043 12.610782-43.898435 0-46.413913-21.849043-69.64313-65.524869-69.643131-20.72487 0-37.320348 6.255304-49.775304 18.765914-12.466087 12.510609-18.977391 29.762783-19.533913 51.756521H322.782609c0.556522-52.446609 17.853217-93.495652 51.867826-123.136C408.676174 226.304 455.090087 211.478261 513.892174 211.478261c59.358609 0 105.427478 14.06887 138.173217 42.217739C684.855652 281.822609 701.217391 321.558261 701.217391 372.902957c0 23.340522-5.320348 45.378783-15.961043 66.103652s-29.273043 43.709217-55.863652 68.975304l-34.014609 31.721739c-21.292522 20.034783-33.469217 43.497739-36.541217 70.4l-1.680696 25.121391h-107.531131z" fill="#FFFFFF" p-id="905"></path><path d="M546.749217 624.094609l1.024-15.248696c3.383652-29.573565 16.806957-55.440696 40.013913-77.289739l33.947827-31.643826c25.766957-24.486957 43.631304-46.547478 53.626434-65.992348A131.617391 131.617391 0 0 0 690.086957 372.914087c0-48.250435-15.09287-84.869565-45.267479-110.781217C614.277565 235.898435 570.768696 222.608696 513.892174 222.608696c-56.275478 0-100.096 14.002087-131.929044 41.73913-29.072696 25.33287-44.955826 59.65913-47.649391 103.602087h99.895652c2.304-19.734261 9.616696-36.018087 22.016-48.461913 14.647652-14.714435 34.092522-22.038261 57.655652-22.038261 49.986783 0 76.666435 28.338087 76.666435 80.762435 0 17.452522-4.786087 34.070261-14.213565 49.664-9.126957 15.070609-26.679652 33.769739-52.825043 56.576-24.130783 21.047652-40.525913 42.162087-49.330087 63.220869-7.969391 19.088696-12.443826 44.588522-13.278609 76.421566h85.849043z m-108.254608 11.130434c0-39.780174 4.975304-71.791304 15.137391-96.122434 10.24-24.498087 28.716522-48.283826 55.240348-71.424 24.56487-21.414957 40.737391-38.678261 48.417391-51.333566 7.357217-12.154435 10.99687-24.809739 10.99687-38.132869 0-40.425739-17.029565-58.512696-54.394435-58.512696-17.886609 0-31.621565 5.175652-41.894957 15.493565-10.317913 10.351304-15.805217 24.876522-16.283826 44.165566l-0.26713 10.852174h-143.916522l0.122435-11.24174c0.589913-55.496348 19.166609-99.584 55.685565-131.417043C403.556174 216.008348 452.563478 200.347826 513.892174 200.347826c61.840696 0 110.458435 14.85913 145.430261 44.900174C694.683826 275.611826 712.347826 318.464 712.347826 372.914087c0 25.09913-5.743304 48.873739-17.185391 71.17913-11.286261 21.971478-30.653217 45.890783-58.178783 72.025044l-33.970087 31.677217c-19.422609 18.276174-30.352696 39.346087-33.068522 63.053913l-2.381913 35.506087H438.494609v-11.130435z" fill="#005CB9" p-id="906"></path><path d="M506.434783 751.304348m-50.086957 0a50.086957 50.086957 0 1 0 100.173913 0 50.086957 50.086957 0 1 0-100.173913 0Z" fill="#FFFFFF" p-id="907"></path><path d="M506.434783 801.391304a50.086957 50.086957 0 1 0 0-100.173913 50.086957 50.086957 0 0 0 0 100.173913z m0 22.26087a72.347826 72.347826 0 1 1 0-144.695652 72.347826 72.347826 0 0 1 0 144.695652z" fill="#005CB9" p-id="908"></path></svg>