<?xml version="1.0" standalone="no"?><!DOCTYPE svg PUBLIC "-//W3C//DTD SVG 1.1//EN" "http://www.w3.org/Graphics/SVG/1.1/DTD/svg11.dtd"><svg t="1582986877985" class="icon" viewBox="0 0 1024 1024" version="1.1" xmlns="http://www.w3.org/2000/svg" p-id="1615" xmlns:xlink="http://www.w3.org/1999/xlink" width="32" height="32"><defs><style type="text/css"></style></defs><path d="M599.6 433.2s45.6 15.6 96 15.6 80-17.6 101.2-38.8c31.2-31.2 70.8-30 89.6 78 15.6 89.6 0 210.4-97.6 288.4-99.2 79.6-222 93.6-304 93.6s-264.8 0-331.2-113.2c-54.8-93.2-3.2-220.4 101.6-258.4" fill="#D2F28C" p-id="1616"></path><path d="M232 756.4c-54.8-93.2-3.2-220.4 101.6-258.4H255.6c-104.8 38-156.4 164.8-101.6 258.4 66.4 113.2 249.6 113.2 331.2 113.2 8.8 0 18.4 0 28-0.4-90.8-2.8-226.4-18.8-281.2-112.8z" fill="#FFF87D" p-id="1617"></path><path d="M886.8 487.6c-18.8-108-58.4-109.2-89.6-78-19.6 19.6-45.2 35.6-87.2 38.4 3.6 11.2 6.4 24.4 9.2 39.6 15.6 89.6 0 210.4-97.6 288.4-74.4 59.6-162.4 82.4-236 90 38.8 3.6 74 3.6 99.6 3.6 82 0 204.8-14 304-93.6 97.6-78 113.2-198.8 97.6-288.4z" fill="#91E55C" p-id="1618"></path><path d="M620 347.2c0 106.4-86.4 192.8-192.8 192.8-78.4 0-161.2-16.8-202.8-72-23.2-31.2-50.8-120.8 0-163.6 40.4-34.4 70-150 202.8-150 106.4 0 192.8 86.4 192.8 192.8z" fill="#D2F28C" p-id="1619"></path><path d="M380 487.6c-14.8 12.4-22.8 29.2-26.4 47.2-0.8 4 57.6 4.4 88 4.4 106.4 0 167.6-101.2 175.2-171.6 0.8-6 7.6-25.6 2.4-26.8-12-2.4-24.4-3.6-36.8-3.6-132 0.4-161.6 116.4-202.4 150.4z" fill="#91E55C" p-id="1620"></path><path d="M267.2 347.2c40.4-34.4 70-150 202.8-150 42.4 0 81.6 13.6 113.2 36.8-35.2-48.4-92-79.6-156-79.6-132.4 0-162 115.6-202.8 150-50.8 42.8-23.2 132.4 0 163.6 10 13.6 22.8 24.8 36.8 34-21.6-36.8-40.4-115.2 6-154.8z" fill="#FFF87D" p-id="1621"></path><path d="M426.8 552.4c-70.4 0-164.4-13.2-212.4-76.8-28.4-38-53.2-133.6 2-180 9.6-8 18.8-22 30-38.4 32.4-48.4 76.8-114.4 180.4-114.4 112.8 0 204.8 92 204.8 204.8s-91.6 204.8-204.8 204.8z m0-386C336 166.4 297.6 224 266.4 270c-12 18-22.4 33.2-34.4 43.6-44 37.2-18.4 120 2 147.2 41.6 55.6 128 67.2 193.2 67.2 99.6 0 180.8-81.2 180.8-180.8 0-99.6-81.2-180.8-181.2-180.8z" fill="#104167" p-id="1622"></path><path d="M233.2 295.6s77.2 114 61.6 149.2c-15.6 35.2-82 35.2-116.8 15.6-44.4-24.8-42.8-78 4-85.6 0 0-38.8-78-27.2-89.6 11.2-12 36.4 29.2 78.4 10.4z" fill="#00AB95" p-id="1623"></path><path d="M162 316c11.6-11.6 36.8 29.2 78.8 10.8l-7.6-31.2c-42 18.4-67.2-22.4-78.8-10.8-4.8 4.8-0.8 22 5.6 39.6-0.4-3.6 0.4-6.4 2-8.4z" fill="#47DDC0" p-id="1624"></path><path d="M233.2 485.6c-21.6 0-44.4-5.2-61.2-14.4-27.2-15.2-42-41.2-37.6-66.8 2.8-16.8 14-30 30.4-36.8-35.2-74-22.8-86.4-18.8-90.4 10.8-10.8 24.8-3.6 34.8 2 13.2 7.2 28 15.2 47.6 6.4 5.2-2.4 11.6-0.4 14.8 4.4 13.6 20 80 121.6 62.4 160.8-6.4 14-18.8 24.4-36.4 30.4-11.2 2.4-23.6 4.4-36 4.4zM164.4 296.8c2 13.6 13.6 44 28 72.4 1.6 3.6 1.6 7.6 0 10.8-1.6 3.2-4.8 5.6-8.8 6.4-14.4 2.4-23.6 10.4-25.6 21.6-2 12.4 4.8 30.4 25.6 41.6 21.6 12 54.8 15.2 78 7.6 11.2-3.6 18.8-9.6 22.4-17.6 7.6-17.2-22-78.8-55.2-129.6-26 7.2-46.4-3.6-59.2-10.8-2-0.4-3.6-1.2-5.2-2.4z" fill="#104167" p-id="1625"></path><path d="M289.2 445.2c-39.6 0-102-50.4-115.2-61.2-5.2-4.4-6-12-2-17.2 4.4-5.2 11.6-6 16.8-1.6 31.2 25.6 85.6 61.2 103.6 55.2 6.4-2 13.2 1.6 15.2 7.6 2 6.4-1.6 13.2-7.6 15.2-3.2 1.6-6.8 2-10.8 2zM399.6 332c-6 0-11.2-4.4-12-10.4-0.8-6.4 3.6-12.4 10-13.6 1.6-0.4 17.2-3.2 17.2-15.6 0-6.8 5.2-12 12-12s12 5.2 12 12c0 26.8-24.4 37.2-37.6 39.2-0.4 0.4-1.2 0.4-1.6 0.4z" fill="#104167" p-id="1626"></path><path d="M404.8 363.6h-5.6c-6.8-0.4-11.6-6-11.2-12.8 0.4-6.8 6-11.6 12.8-11.2 2 0 46.8 2.4 49.6-28 0.4-6.8 6.4-11.6 13.2-10.8 6.8 0.4 11.6 6.4 10.8 13.2-4 39.2-44.4 49.6-69.6 49.6z" fill="#104167" p-id="1627"></path><path d="M376.4 335.6m-31.2 0a31.2 31.2 0 1 0 62.4 0 31.2 31.2 0 1 0-62.4 0Z" fill="#FFFFFF" p-id="1628"></path><path d="M376.4 378.8c-24 0-43.2-19.2-43.2-43.2s19.2-43.2 43.2-43.2 43.2 19.2 43.2 43.2-19.6 43.2-43.2 43.2z m0-62.4c-10.4 0-19.2 8.8-19.2 19.2s8.8 19.2 19.2 19.2 19.2-8.8 19.2-19.2-8.8-19.2-19.2-19.2zM485.2 881.6c-81.2 0-272 0-341.6-118.8-26.8-45.6-31.2-101.6-12-154.4 20.4-56.8 64.4-101.2 120-121.2 6.4-2.4 13.2 0.8 15.2 7.2 2.4 6.4-0.8 13.2-7.2 15.2-48.8 17.6-87.6 56.8-105.6 106.8-16.4 46-12.8 94.8 10.4 134 62.8 107.2 243.6 107.2 320.8 107.2 121.2 0 221.2-30.4 296.4-90.8 115.2-92 100.4-235.2 93.2-276.8-12-69.6-31.2-82.4-38.8-84.8-10.8-3.6-22.4 5.6-30.4 13.6-18.4 18.4-49.6 42.4-110 42.4-52 0-98-15.6-100-16-6.4-2-9.6-8.8-7.6-15.2 2-6.4 8.8-9.6 15.2-7.6 0.4 0 44.4 14.8 92.4 14.8 50.8 0 76.4-18.8 92.8-35.6 23.2-23.2 42.4-23.2 54.8-19.2 26.4 8.4 44.4 42.4 55.2 103.6 8 44.8 23.6 199.6-101.6 300-79.6 63.2-184.4 95.6-311.6 95.6z" fill="#104167" p-id="1629"></path><path d="M633.6 682.4c19.6 11.6 35.2 62.4-27.2 89.6-46.4 20.4-135.6 28.8-187.2 11.6-46.8-15.6-78-58.4-70-113.2s51.2-81.6 120.8-70c93.6 15.6 148-38.8 183.2-78 0 0 27.2 42.8-4 82 14.8 0.8 14.8 16.4 18.8 28.4l-8 27.2-26.4 22.4z" fill="#00AB95" p-id="1630"></path><path d="M664.8 632c1.2 0 2 0.4 3.2 0.4-0.4-1.2-0.8-2-0.8-3.2-1.2 0.8-2 1.6-2.4 2.8zM650 710.4c0-0.4 0-0.8-0.4-1.2l-0.8 0.8c0.8 0 0.8 0.4 1.2 0.4zM364.4 698c7.6-54.4 51.2-81.6 120.8-70 89.2 14.8 143.2-34 178.4-72.4-2-18.8-10.8-32.8-10.8-32.8-35.2 38.8-89.6 93.6-183.2 78-69.6-11.6-113.2 15.6-120.8 70-4.4 31.2 4 58.8 20.8 79.2-5.6-15.2-7.6-32.8-5.2-52z" fill="#47DDC0" p-id="1631"></path><path d="M488 805.2c-26.4 0-52-2.8-72.4-10-54.8-18.4-86.4-68.8-78.4-126 4-27.6 16.4-49.6 36-64 24-17.6 58-23.2 98.8-16.4 91.6 15.2 144-42.8 172.4-74 2.4-2.8 6-4.4 10-4 3.6 0.4 7.2 2.4 9.2 5.6 11.2 17.2 24.4 59.6-4.8 95.6-21.6 26.8-56 39.6-80 46.8-6.4 2-13.2-1.6-14.8-8-2-6.4 1.6-13.2 8-14.8 20.8-6.4 50.8-17.2 68-38.8 15.2-19.2 13.6-39.2 9.6-52.8-32.4 34-90 83.2-181.6 68-34-5.6-62-1.6-80.8 12-14.4 10.4-23.2 26.8-26.4 48-6.4 46 17.6 85.2 62 100 49.6 16.4 135.2 7.6 178.4-11.2 23.2-10 36-24.4 37.2-41.2 0.8-13.6-6-24-11.2-27.2-5.6-3.6-7.6-10.8-4-16.4 3.6-5.6 10.8-7.6 16.4-4 14.8 8.8 24 29.2 22.8 49.2-0.8 15.2-8.8 43.2-51.6 61.6-29.6 13.2-77.6 22-122.8 22z" fill="#104167" p-id="1632"></path><path d="M567.2 725.6c-4.8 0-9.2-2.8-11.2-7.6-2.4-6 0.8-13.2 6.8-15.6 0.4-0.4 54.8-21.2 82.4-44.8 11.6-10 11.2-21.6 10.4-28-1.2-8-5.2-12.4-6.8-13.2-6.4-0.4-11.6-5.6-11.6-12 0-6.8 5.2-12 12-12 11.6 0 22 9.2 27.6 23.6 6 16.4 5.6 41.6-15.6 59.6-30.4 26-86.8 48-89.2 48.8-2 1.2-3.2 1.2-4.8 1.2z m82-109.2z m-0.8 0z" fill="#104167" p-id="1633"></path><path d="M349.6 642l3.2 3.2 3.2-3.2c12.8-12.8 33.2-12.8 46 0 12.8 12.8 12.8 33.2 0 46l-3.2 3.2-46 46-46-46-3.2-3.2c-12.8-12.8-12.8-33.2 0-46 12.8-12.8 33.2-12.8 46 0z" fill="#FFF87D" p-id="1634"></path><path d="M352.8 749.6c-3.2 0-6-1.2-8.4-3.6l-49.2-49.2c-8.4-8.4-13.2-19.6-13.2-31.6s4.8-23.2 13.2-31.6c8.4-8.4 19.6-13.2 31.6-13.2 9.6 0 18.8 3.2 26.4 8.4 7.6-5.6 16.8-8.4 26.4-8.4 12 0 23.2 4.8 31.6 13.2 17.2 17.2 17.2 45.6 0 63.2l-49.2 49.2c-3.2 2.4-6 3.6-9.2 3.6z m-26.4-105.2c-5.6 0-10.8 2-14.4 6-4 4-6 9.2-6 14.4s2 10.8 6 14.4L352.8 720l40.8-40.8c8-8 8-21.2 0-29.2-4-4-9.2-6-14.4-6-5.6 0-10.8 2-14.4 6l-3.2 3.2c-4.8 4.8-12.4 4.8-16.8 0l-3.2-3.2c-4.4-3.2-9.6-5.6-15.2-5.6z" fill="#104167" p-id="1635"></path></svg>